<mxfile host="app.diagrams.net" agent="Mozilla/5.0 (Windows NT 10.0; Win64; x64) AppleWebKit/537.36 (KHTML, like Gecko) Chrome/135.0.0.0 Safari/537.36" version="26.2.12" pages="2">
  <diagram name="Page-1" id="Pf-uaQFut-23soDKDuMi">
    <mxGraphModel dx="1428" dy="777" grid="1" gridSize="10" guides="1" tooltips="1" connect="1" arrows="1" fold="1" page="1" pageScale="1" pageWidth="850" pageHeight="1100" math="0" shadow="0">
      <root>
        <mxCell id="0" />
        <mxCell id="1" parent="0" />
        <mxCell id="-C8Dr-h6j3GwXyE4q1zT-3" value="" style="edgeStyle=orthogonalEdgeStyle;rounded=0;orthogonalLoop=1;jettySize=auto;html=1;" edge="1" parent="1" source="-C8Dr-h6j3GwXyE4q1zT-1" target="-C8Dr-h6j3GwXyE4q1zT-2">
          <mxGeometry relative="1" as="geometry" />
        </mxCell>
        <mxCell id="-C8Dr-h6j3GwXyE4q1zT-1" value="START" style="strokeWidth=2;html=1;shape=mxgraph.flowchart.start_1;whiteSpace=wrap;" vertex="1" parent="1">
          <mxGeometry x="80" y="30" width="150" height="90" as="geometry" />
        </mxCell>
        <mxCell id="-C8Dr-h6j3GwXyE4q1zT-5" value="" style="edgeStyle=orthogonalEdgeStyle;rounded=0;orthogonalLoop=1;jettySize=auto;html=1;" edge="1" parent="1" source="-C8Dr-h6j3GwXyE4q1zT-2" target="-C8Dr-h6j3GwXyE4q1zT-4">
          <mxGeometry relative="1" as="geometry" />
        </mxCell>
        <mxCell id="-C8Dr-h6j3GwXyE4q1zT-2" value="SET secret_number to random 1-100" style="rounded=1;whiteSpace=wrap;html=1;absoluteArcSize=1;arcSize=14;strokeWidth=2;" vertex="1" parent="1">
          <mxGeometry x="87.5" y="160" width="135" height="100" as="geometry" />
        </mxCell>
        <mxCell id="-C8Dr-h6j3GwXyE4q1zT-11" value="" style="edgeStyle=orthogonalEdgeStyle;rounded=0;orthogonalLoop=1;jettySize=auto;html=1;" edge="1" parent="1" source="-C8Dr-h6j3GwXyE4q1zT-4">
          <mxGeometry relative="1" as="geometry">
            <mxPoint x="155" y="460" as="targetPoint" />
          </mxGeometry>
        </mxCell>
        <mxCell id="-C8Dr-h6j3GwXyE4q1zT-4" value="SET guess to None" style="rounded=1;whiteSpace=wrap;html=1;absoluteArcSize=1;arcSize=14;strokeWidth=2;" vertex="1" parent="1">
          <mxGeometry x="85" y="300" width="140" height="100" as="geometry" />
        </mxCell>
        <mxCell id="-C8Dr-h6j3GwXyE4q1zT-13" value="" style="edgeStyle=orthogonalEdgeStyle;rounded=0;orthogonalLoop=1;jettySize=auto;html=1;" edge="1" parent="1" source="-C8Dr-h6j3GwXyE4q1zT-24" target="-C8Dr-h6j3GwXyE4q1zT-12">
          <mxGeometry relative="1" as="geometry" />
        </mxCell>
        <mxCell id="-C8Dr-h6j3GwXyE4q1zT-10" value="Is guess equal to secret_number?" style="rhombus;whiteSpace=wrap;html=1;rounded=1;absoluteArcSize=1;arcSize=14;strokeWidth=2;" vertex="1" parent="1">
          <mxGeometry x="96.25" y="460" width="117.5" height="120" as="geometry" />
        </mxCell>
        <mxCell id="-C8Dr-h6j3GwXyE4q1zT-16" value="" style="edgeStyle=orthogonalEdgeStyle;rounded=0;orthogonalLoop=1;jettySize=auto;html=1;" edge="1" parent="1" source="-C8Dr-h6j3GwXyE4q1zT-12" target="-C8Dr-h6j3GwXyE4q1zT-15">
          <mxGeometry relative="1" as="geometry" />
        </mxCell>
        <mxCell id="-C8Dr-h6j3GwXyE4q1zT-12" value="Prompt&amp;nbsp; &#39;Enter your guess (1-100):&#39;" style="rounded=1;whiteSpace=wrap;html=1;absoluteArcSize=1;arcSize=14;strokeWidth=2;" vertex="1" parent="1">
          <mxGeometry x="310" y="480" width="137.5" height="80" as="geometry" />
        </mxCell>
        <mxCell id="-C8Dr-h6j3GwXyE4q1zT-19" value="" style="edgeStyle=orthogonalEdgeStyle;rounded=0;orthogonalLoop=1;jettySize=auto;html=1;" edge="1" parent="1" source="-C8Dr-h6j3GwXyE4q1zT-15" target="-C8Dr-h6j3GwXyE4q1zT-17">
          <mxGeometry relative="1" as="geometry" />
        </mxCell>
        <mxCell id="-C8Dr-h6j3GwXyE4q1zT-15" value="Convert input to integer=guess" style="whiteSpace=wrap;html=1;rounded=1;absoluteArcSize=1;arcSize=14;strokeWidth=2;" vertex="1" parent="1">
          <mxGeometry x="510" y="480" width="134.25" height="80" as="geometry" />
        </mxCell>
        <mxCell id="-C8Dr-h6j3GwXyE4q1zT-21" value="" style="edgeStyle=orthogonalEdgeStyle;rounded=0;orthogonalLoop=1;jettySize=auto;html=1;" edge="1" parent="1" source="-C8Dr-h6j3GwXyE4q1zT-22" target="-C8Dr-h6j3GwXyE4q1zT-20">
          <mxGeometry relative="1" as="geometry" />
        </mxCell>
        <mxCell id="-C8Dr-h6j3GwXyE4q1zT-36" value="" style="edgeStyle=orthogonalEdgeStyle;rounded=0;orthogonalLoop=1;jettySize=auto;html=1;" edge="1" parent="1" source="-C8Dr-h6j3GwXyE4q1zT-37" target="-C8Dr-h6j3GwXyE4q1zT-35">
          <mxGeometry relative="1" as="geometry" />
        </mxCell>
        <mxCell id="-C8Dr-h6j3GwXyE4q1zT-17" value="Is guess &amp;lt; secret_number?" style="rhombus;whiteSpace=wrap;html=1;rounded=1;absoluteArcSize=1;arcSize=14;strokeWidth=2;" vertex="1" parent="1">
          <mxGeometry x="522.12" y="590" width="110" height="110" as="geometry" />
        </mxCell>
        <mxCell id="-C8Dr-h6j3GwXyE4q1zT-27" value="" style="edgeStyle=orthogonalEdgeStyle;rounded=0;orthogonalLoop=1;jettySize=auto;html=1;" edge="1" parent="1" source="-C8Dr-h6j3GwXyE4q1zT-28" target="-C8Dr-h6j3GwXyE4q1zT-26">
          <mxGeometry relative="1" as="geometry" />
        </mxCell>
        <mxCell id="-C8Dr-h6j3GwXyE4q1zT-31" value="" style="edgeStyle=orthogonalEdgeStyle;rounded=0;orthogonalLoop=1;jettySize=auto;html=1;" edge="1" parent="1" source="-C8Dr-h6j3GwXyE4q1zT-32" target="-C8Dr-h6j3GwXyE4q1zT-30">
          <mxGeometry relative="1" as="geometry" />
        </mxCell>
        <mxCell id="-C8Dr-h6j3GwXyE4q1zT-20" value="Is guess &amp;gt; secret_number?" style="rhombus;whiteSpace=wrap;html=1;rounded=1;absoluteArcSize=1;arcSize=14;strokeWidth=2;" vertex="1" parent="1">
          <mxGeometry x="712.12" y="590" width="110" height="110" as="geometry" />
        </mxCell>
        <mxCell id="-C8Dr-h6j3GwXyE4q1zT-23" value="" style="edgeStyle=orthogonalEdgeStyle;rounded=0;orthogonalLoop=1;jettySize=auto;html=1;" edge="1" parent="1" source="-C8Dr-h6j3GwXyE4q1zT-17" target="-C8Dr-h6j3GwXyE4q1zT-22">
          <mxGeometry relative="1" as="geometry">
            <mxPoint x="632" y="645" as="sourcePoint" />
            <mxPoint x="712" y="645" as="targetPoint" />
          </mxGeometry>
        </mxCell>
        <mxCell id="-C8Dr-h6j3GwXyE4q1zT-22" value="NO" style="text;html=1;align=center;verticalAlign=middle;resizable=0;points=[];autosize=1;strokeColor=none;fillColor=none;" vertex="1" parent="1">
          <mxGeometry x="644.25" y="630" width="40" height="30" as="geometry" />
        </mxCell>
        <mxCell id="-C8Dr-h6j3GwXyE4q1zT-25" value="" style="edgeStyle=orthogonalEdgeStyle;rounded=0;orthogonalLoop=1;jettySize=auto;html=1;" edge="1" parent="1" source="-C8Dr-h6j3GwXyE4q1zT-10" target="-C8Dr-h6j3GwXyE4q1zT-24">
          <mxGeometry relative="1" as="geometry">
            <mxPoint x="214" y="520" as="sourcePoint" />
            <mxPoint x="310" y="520" as="targetPoint" />
          </mxGeometry>
        </mxCell>
        <mxCell id="-C8Dr-h6j3GwXyE4q1zT-24" value="NO" style="text;html=1;align=center;verticalAlign=middle;resizable=0;points=[];autosize=1;strokeColor=none;fillColor=none;" vertex="1" parent="1">
          <mxGeometry x="230" y="505" width="40" height="30" as="geometry" />
        </mxCell>
        <mxCell id="-C8Dr-h6j3GwXyE4q1zT-26" value="PRINT &#39;Congratulations! You guessed the number!&#39;" style="whiteSpace=wrap;html=1;rounded=1;absoluteArcSize=1;arcSize=14;strokeWidth=2;" vertex="1" parent="1">
          <mxGeometry x="700.68" y="810" width="132.88" height="65" as="geometry" />
        </mxCell>
        <mxCell id="-C8Dr-h6j3GwXyE4q1zT-29" value="" style="edgeStyle=orthogonalEdgeStyle;rounded=0;orthogonalLoop=1;jettySize=auto;html=1;" edge="1" parent="1" source="-C8Dr-h6j3GwXyE4q1zT-20" target="-C8Dr-h6j3GwXyE4q1zT-28">
          <mxGeometry relative="1" as="geometry">
            <mxPoint x="767" y="700" as="sourcePoint" />
            <mxPoint x="767" y="805" as="targetPoint" />
          </mxGeometry>
        </mxCell>
        <mxCell id="-C8Dr-h6j3GwXyE4q1zT-28" value="NO" style="text;html=1;align=center;verticalAlign=middle;resizable=0;points=[];autosize=1;strokeColor=none;fillColor=none;rotation=90;" vertex="1" parent="1">
          <mxGeometry x="747.12" y="740" width="40" height="30" as="geometry" />
        </mxCell>
        <mxCell id="-C8Dr-h6j3GwXyE4q1zT-34" style="edgeStyle=orthogonalEdgeStyle;rounded=0;orthogonalLoop=1;jettySize=auto;html=1;entryX=0.747;entryY=0.2;entryDx=0;entryDy=0;entryPerimeter=0;" edge="1" parent="1" target="-C8Dr-h6j3GwXyE4q1zT-10">
          <mxGeometry relative="1" as="geometry">
            <mxPoint x="792.1199999999999" y="389.9" as="sourcePoint" />
            <mxPoint x="240.0999999999999" y="480.0021276595743" as="targetPoint" />
            <Array as="points">
              <mxPoint x="240" y="390" />
              <mxPoint x="240" y="484" />
            </Array>
          </mxGeometry>
        </mxCell>
        <mxCell id="-C8Dr-h6j3GwXyE4q1zT-30" value="PRINT &#39;Too low. Try again.&#39;" style="rounded=1;whiteSpace=wrap;html=1;absoluteArcSize=1;arcSize=14;strokeWidth=2;" vertex="1" parent="1">
          <mxGeometry x="707.12" y="340" width="120" height="60" as="geometry" />
        </mxCell>
        <mxCell id="-C8Dr-h6j3GwXyE4q1zT-33" value="" style="edgeStyle=orthogonalEdgeStyle;rounded=0;orthogonalLoop=1;jettySize=auto;html=1;" edge="1" parent="1" source="-C8Dr-h6j3GwXyE4q1zT-20" target="-C8Dr-h6j3GwXyE4q1zT-32">
          <mxGeometry relative="1" as="geometry">
            <mxPoint x="767" y="590" as="sourcePoint" />
            <mxPoint x="767" y="400" as="targetPoint" />
          </mxGeometry>
        </mxCell>
        <mxCell id="-C8Dr-h6j3GwXyE4q1zT-32" value="YES" style="text;html=1;align=center;verticalAlign=middle;resizable=0;points=[];autosize=1;strokeColor=none;fillColor=none;rotation=90;" vertex="1" parent="1">
          <mxGeometry x="742.12" y="480" width="50" height="30" as="geometry" />
        </mxCell>
        <mxCell id="-C8Dr-h6j3GwXyE4q1zT-35" value="PRINT &#39;Too high. Try again.&#39;" style="whiteSpace=wrap;html=1;rounded=1;absoluteArcSize=1;arcSize=14;strokeWidth=2;" vertex="1" parent="1">
          <mxGeometry x="300" y="612.5" width="125" height="65" as="geometry" />
        </mxCell>
        <mxCell id="-C8Dr-h6j3GwXyE4q1zT-38" value="" style="edgeStyle=orthogonalEdgeStyle;rounded=0;orthogonalLoop=1;jettySize=auto;html=1;" edge="1" parent="1" source="-C8Dr-h6j3GwXyE4q1zT-17" target="-C8Dr-h6j3GwXyE4q1zT-37">
          <mxGeometry relative="1" as="geometry">
            <mxPoint x="522" y="645" as="sourcePoint" />
            <mxPoint x="425" y="645" as="targetPoint" />
          </mxGeometry>
        </mxCell>
        <mxCell id="-C8Dr-h6j3GwXyE4q1zT-37" value="YES" style="text;html=1;align=center;verticalAlign=middle;resizable=0;points=[];autosize=1;strokeColor=none;fillColor=none;" vertex="1" parent="1">
          <mxGeometry x="447.5" y="630" width="50" height="30" as="geometry" />
        </mxCell>
        <mxCell id="-C8Dr-h6j3GwXyE4q1zT-39" style="edgeStyle=orthogonalEdgeStyle;rounded=0;orthogonalLoop=1;jettySize=auto;html=1;entryX=0.5;entryY=0.95;entryDx=0;entryDy=0;entryPerimeter=0;" edge="1" parent="1" source="-C8Dr-h6j3GwXyE4q1zT-35" target="-C8Dr-h6j3GwXyE4q1zT-10">
          <mxGeometry relative="1" as="geometry" />
        </mxCell>
      </root>
    </mxGraphModel>
  </diagram>
  <diagram id="jpeBG0UoDOJcGhToTFRW" name="Page-2">
    <mxGraphModel dx="2278" dy="777" grid="1" gridSize="10" guides="1" tooltips="1" connect="1" arrows="1" fold="1" page="1" pageScale="1" pageWidth="850" pageHeight="1100" math="0" shadow="0">
      <root>
        <mxCell id="0" />
        <mxCell id="1" parent="0" />
        <mxCell id="379-cx58LH22G5Tahrb9-3" value="" style="edgeStyle=orthogonalEdgeStyle;rounded=0;orthogonalLoop=1;jettySize=auto;html=1;" edge="1" parent="1" source="379-cx58LH22G5Tahrb9-1" target="379-cx58LH22G5Tahrb9-2">
          <mxGeometry relative="1" as="geometry" />
        </mxCell>
        <mxCell id="379-cx58LH22G5Tahrb9-1" value="START" style="strokeWidth=2;html=1;shape=mxgraph.flowchart.start_1;whiteSpace=wrap;" vertex="1" parent="1">
          <mxGeometry x="40" y="10" width="150" height="100" as="geometry" />
        </mxCell>
        <mxCell id="379-cx58LH22G5Tahrb9-5" value="" style="edgeStyle=orthogonalEdgeStyle;rounded=0;orthogonalLoop=1;jettySize=auto;html=1;" edge="1" parent="1" source="379-cx58LH22G5Tahrb9-2" target="379-cx58LH22G5Tahrb9-4">
          <mxGeometry relative="1" as="geometry" />
        </mxCell>
        <mxCell id="379-cx58LH22G5Tahrb9-2" value="Open Dictionary" style="rounded=1;whiteSpace=wrap;html=1;strokeWidth=2;" vertex="1" parent="1">
          <mxGeometry x="52.5" y="170" width="125" height="80" as="geometry" />
        </mxCell>
        <mxCell id="379-cx58LH22G5Tahrb9-7" value="" style="edgeStyle=orthogonalEdgeStyle;rounded=0;orthogonalLoop=1;jettySize=auto;html=1;" edge="1" parent="1" source="379-cx58LH22G5Tahrb9-18" target="379-cx58LH22G5Tahrb9-6">
          <mxGeometry relative="1" as="geometry" />
        </mxCell>
        <mxCell id="379-cx58LH22G5Tahrb9-21" value="" style="edgeStyle=orthogonalEdgeStyle;rounded=0;orthogonalLoop=1;jettySize=auto;html=1;" edge="1" parent="1" source="379-cx58LH22G5Tahrb9-22" target="379-cx58LH22G5Tahrb9-20">
          <mxGeometry relative="1" as="geometry" />
        </mxCell>
        <mxCell id="379-cx58LH22G5Tahrb9-4" value="Is word found?" style="rhombus;whiteSpace=wrap;html=1;rounded=1;strokeWidth=2;" vertex="1" parent="1">
          <mxGeometry x="57.5" y="310" width="115" height="110" as="geometry" />
        </mxCell>
        <mxCell id="379-cx58LH22G5Tahrb9-9" value="" style="edgeStyle=orthogonalEdgeStyle;rounded=0;orthogonalLoop=1;jettySize=auto;html=1;" edge="1" parent="1" source="379-cx58LH22G5Tahrb9-10" target="379-cx58LH22G5Tahrb9-8">
          <mxGeometry relative="1" as="geometry" />
        </mxCell>
        <mxCell id="379-cx58LH22G5Tahrb9-13" value="" style="edgeStyle=orthogonalEdgeStyle;rounded=0;orthogonalLoop=1;jettySize=auto;html=1;" edge="1" parent="1" source="379-cx58LH22G5Tahrb9-6" target="379-cx58LH22G5Tahrb9-12">
          <mxGeometry relative="1" as="geometry" />
        </mxCell>
        <mxCell id="379-cx58LH22G5Tahrb9-14" value="YES" style="edgeLabel;html=1;align=center;verticalAlign=middle;resizable=0;points=[];rotation=90;" vertex="1" connectable="0" parent="379-cx58LH22G5Tahrb9-13">
          <mxGeometry x="-0.175" y="3" relative="1" as="geometry">
            <mxPoint as="offset" />
          </mxGeometry>
        </mxCell>
        <mxCell id="379-cx58LH22G5Tahrb9-6" value="Is word before current page?" style="rhombus;whiteSpace=wrap;html=1;rounded=1;strokeWidth=2;" vertex="1" parent="1">
          <mxGeometry x="280" y="310" width="115" height="110" as="geometry" />
        </mxCell>
        <mxCell id="379-cx58LH22G5Tahrb9-16" style="edgeStyle=orthogonalEdgeStyle;rounded=0;orthogonalLoop=1;jettySize=auto;html=1;" edge="1" parent="1">
          <mxGeometry relative="1" as="geometry">
            <mxPoint x="112" y="420" as="targetPoint" />
            <mxPoint x="561.5" y="370" as="sourcePoint" />
            <Array as="points">
              <mxPoint x="562" y="540" />
              <mxPoint x="563" y="540" />
              <mxPoint x="563" y="670" />
              <mxPoint x="112" y="670" />
            </Array>
          </mxGeometry>
        </mxCell>
        <mxCell id="379-cx58LH22G5Tahrb9-8" value="Flip forward" style="rounded=1;whiteSpace=wrap;html=1;strokeWidth=2;" vertex="1" parent="1">
          <mxGeometry x="490" y="335" width="120" height="60" as="geometry" />
        </mxCell>
        <mxCell id="379-cx58LH22G5Tahrb9-11" value="" style="edgeStyle=orthogonalEdgeStyle;rounded=0;orthogonalLoop=1;jettySize=auto;html=1;" edge="1" parent="1" source="379-cx58LH22G5Tahrb9-6" target="379-cx58LH22G5Tahrb9-10">
          <mxGeometry relative="1" as="geometry">
            <mxPoint x="395" y="365" as="sourcePoint" />
            <mxPoint x="490" y="365" as="targetPoint" />
          </mxGeometry>
        </mxCell>
        <mxCell id="379-cx58LH22G5Tahrb9-10" value="NO" style="text;html=1;align=center;verticalAlign=middle;resizable=0;points=[];autosize=1;strokeColor=none;fillColor=none;" vertex="1" parent="1">
          <mxGeometry x="420" y="350" width="40" height="30" as="geometry" />
        </mxCell>
        <mxCell id="379-cx58LH22G5Tahrb9-17" style="edgeStyle=orthogonalEdgeStyle;rounded=0;orthogonalLoop=1;jettySize=auto;html=1;entryX=1;entryY=1;entryDx=0;entryDy=0;" edge="1" parent="1" source="379-cx58LH22G5Tahrb9-12" target="379-cx58LH22G5Tahrb9-4">
          <mxGeometry relative="1" as="geometry">
            <mxPoint x="180" y="410" as="targetPoint" />
            <Array as="points">
              <mxPoint x="181" y="530" />
              <mxPoint x="181" y="393" />
            </Array>
          </mxGeometry>
        </mxCell>
        <mxCell id="379-cx58LH22G5Tahrb9-12" value="Flip Backward" style="whiteSpace=wrap;html=1;rounded=1;strokeWidth=2;" vertex="1" parent="1">
          <mxGeometry x="277.5" y="500" width="120" height="60" as="geometry" />
        </mxCell>
        <mxCell id="379-cx58LH22G5Tahrb9-19" value="" style="edgeStyle=orthogonalEdgeStyle;rounded=0;orthogonalLoop=1;jettySize=auto;html=1;" edge="1" parent="1" source="379-cx58LH22G5Tahrb9-4" target="379-cx58LH22G5Tahrb9-18">
          <mxGeometry relative="1" as="geometry">
            <mxPoint x="173" y="365" as="sourcePoint" />
            <mxPoint x="280" y="365" as="targetPoint" />
          </mxGeometry>
        </mxCell>
        <mxCell id="379-cx58LH22G5Tahrb9-18" value="NO" style="text;html=1;align=center;verticalAlign=middle;resizable=0;points=[];autosize=1;strokeColor=none;fillColor=none;" vertex="1" parent="1">
          <mxGeometry x="200" y="350" width="40" height="30" as="geometry" />
        </mxCell>
        <mxCell id="379-cx58LH22G5Tahrb9-20" value="Read Definition" style="whiteSpace=wrap;html=1;rounded=1;strokeWidth=2;" vertex="1" parent="1">
          <mxGeometry x="-200" y="327.5" width="120" height="75" as="geometry" />
        </mxCell>
        <mxCell id="379-cx58LH22G5Tahrb9-23" value="" style="edgeStyle=orthogonalEdgeStyle;rounded=0;orthogonalLoop=1;jettySize=auto;html=1;" edge="1" parent="1" source="379-cx58LH22G5Tahrb9-4" target="379-cx58LH22G5Tahrb9-22">
          <mxGeometry relative="1" as="geometry">
            <mxPoint x="58" y="365" as="sourcePoint" />
            <mxPoint x="-80" y="365" as="targetPoint" />
          </mxGeometry>
        </mxCell>
        <mxCell id="379-cx58LH22G5Tahrb9-22" value="YES" style="text;html=1;align=center;verticalAlign=middle;resizable=0;points=[];autosize=1;strokeColor=none;fillColor=none;" vertex="1" parent="1">
          <mxGeometry x="-25" y="350" width="50" height="30" as="geometry" />
        </mxCell>
      </root>
    </mxGraphModel>
  </diagram>
</mxfile>
